<svg width="66" height="68" viewBox="0 0 66 68" fill="none" xmlns="http://www.w3.org/2000/svg">
<ellipse cx="33.0018" cy="34.456" rx="32.9154" ry="32.915" fill="url(#paint0_linear)"/>
<path d="M43.0739 29.4597C43.0739 29.9775 43.0332 30.4864 42.954 30.982C42.8793 31.451 42.4764 31.7999 41.9942 31.7999H39.1943C38.9792 31.7999 38.8321 31.5932 38.9 31.3954C39.115 30.7865 39.2259 30.1375 39.2259 29.4597C39.2259 25.8416 36.005 22.9458 32.2317 23.3947C29.3638 23.7347 27.0822 26.0327 26.806 28.8574C26.7042 29.9042 26.6906 30.7398 27.2497 31.7977L29.4136 35.5758L29.5494 35.8047C29.7305 36.1136 29.5041 36.5003 29.1397 36.5003H26.0953C25.7354 36.5003 25.4004 36.3114 25.2216 36.0047L24.4157 34.6312C24.4112 34.6224 24.4044 34.6112 24.3999 34.6024C24.3954 34.5979 24.3931 34.5912 24.3886 34.5846C23.4198 33.02 22.8811 31.1732 22.9331 29.1997C23.0712 23.8947 27.5552 19.5921 32.9583 19.5699C38.5333 19.5477 43.0739 23.9925 43.0739 29.4597Z" fill="white"/>
<path d="M40.0181 35.8091C40.4074 35.8091 40.6496 36.2225 40.4549 36.5514L34.6649 46.4056C34.3208 46.9901 33.687 47.3501 32.9989 47.3501C32.3108 47.3501 31.677 46.9901 31.333 46.4056L28.2681 41.1851C28.0916 40.8829 28.3134 40.5073 28.6665 40.5073H31.9056C32.1546 40.5073 32.3855 40.6384 32.5122 40.8495L33.0012 41.6807L34.4294 39.2494L36.2833 36.0958C36.3874 35.918 36.5798 35.8091 36.788 35.8091H40.0181Z" fill="white"/>
<path d="M33.0011 32.6287C34.5737 32.6287 35.8486 31.377 35.8486 29.8329C35.8486 28.2888 34.5737 27.0371 33.0011 27.0371C31.4284 27.0371 30.1536 28.2888 30.1536 29.8329C30.1536 31.377 31.4284 32.6287 33.0011 32.6287Z" fill="white"/>
<defs>
<linearGradient id="paint0_linear" x1="0.0864241" y1="67.371" x2="83.5494" y2="3.86765" gradientUnits="userSpaceOnUse">
<stop stop-color="#30E3CA"/>
<stop offset="1" stop-color="#81FFE1"/>
</linearGradient>
</defs>
</svg>
